#N canvas 731 208 355 385 12;
#X obj 36 228 pointer;
#X msg 72 180 next;
#X obj 12 12 cnv 15 275 45 empty empty empty 0 -7 0 10 #cccccc #000000;
#X text 24 24 get;
#N canvas 326 384 327 197 \$0-data 1;
#X coords 0 0 1 1 250 175 0 0 0;
#X restore 204 312 pd \$0-data;
#X obj 204 252 bng 15 250 50 0 empty empty empty 17 7 0 10 #ffffff #000000 #000000;
#N canvas 716 369 550 147 \$0-template 0;
#X obj 36 96 struct \$0-widget float x float y float z float q;
#X obj 36 24 draw text -x 50 -y -8 -color q -- z;
#X obj 36 60 draw polygon -fill -fillcolor q -color q -width 3 -- 0 0 20 z 40 0;
#X f 66;
#X coords 0 0 1 1 250 175 0 0 0;
#X restore 204 336 pd \$0-template;
#X obj 96 264 bng 15 250 50 0 empty empty empty 17 7 0 10 #ffffff #000000 #000000;
#X msg 36 144 traverse \$0-data;
#X obj 36 108 loadbang;
#X obj 36 300 get \$0-widget z;
#X floatatom 36 336 5 0 0 1 - - -;
#X f 5;
#X text 12 72 Traversing scalars as a list.;
#X f 31;
#N canvas 645 107 419 267 init 0;
#X obj 36 24 inlet;
#X obj 36 72 t b b;
#X obj 240 180 pointer;
#X msg 36 120 50 100 30 0 \, 200 100 -30 800;
#X msg 240 156 clear \$0-data \, bang;
#X obj 36 216 append \$0-widget x y z q;
#X obj 96 24 loadbang;
#X connect 0 0 1 0;
#X connect 1 0 3 0;
#X connect 1 1 4 0;
#X connect 2 0 5 4;
#X connect 3 0 5 0;
#X connect 4 0 2 0;
#X connect 6 0 1 0;
#X coords 0 0 1 1 250 175 0 0 0;
#X restore 204 288 pd init;
#X connect 0 0 10 0;
#X connect 0 1 7 0;
#X connect 1 0 0 0;
#X connect 5 0 13 0;
#X connect 8 0 0 0;
#X connect 9 0 8 0;
#X connect 10 0 11 0;
#X coords 0 0 1 1 250 175 0 0 0;
