#N canvas 641 115 353 371 12;
#X obj 12 12 cnv 15 275 45 empty empty empty 0 -7 0 10 #cccccc #000000;
#X text 24 24 append;
#N canvas 752 524 394 214 \$0-template 0;
#X obj 36 96 struct \$0-template float x float y symbol z;
#X obj 36 24 draw circle -fill -- 15;
#X obj 36 60 draw text -x -3 -y -6 -color 888 -- z;
#X obj 36 132 constructor x rand()*300;
#X obj 36 168 constructor y rand()*300;
#X coords 0 0 1 1 250 175 0 0 0;
#X restore 36 324 pd \$0-template;
#N canvas 243 164 311 319 \$0-data 1;
#X coords 0 0 1 1 250 175 0 0 0;
#X restore 36 300 pd \$0-data;
#X obj 180 216 pointer;
#X obj 36 108 bng 15 250 50 0 empty empty empty 17 7 0 10 #ffffff #000000 #000000;
#X obj 36 144 t b b;
#X f 5;
#X msg 180 180 clear \$0-data \, bang;
#X obj 36 252 append \$0-template;
#X text 12 72 Add a scalar (constructor way).;
#N canvas 302 230 300 256 alphabet 0;
#X obj 36 24 inlet;
#X obj 36 204 outlet;
#X obj 36 132 list tosymbol;
#X obj 36 108 + 65;
#X msg 36 168 fields z \$1;
#X obj 36 60 uzi 26;
#X connect 0 0 5 0;
#X connect 2 0 4 0;
#X connect 3 0 2 0;
#X connect 4 0 1 0;
#X connect 5 2 3 0;
#X coords 0 0 1 1 250 175 0 0 0;
#X restore 36 216 pd alphabet;
#X connect 4 0 8 1;
#X connect 5 0 6 0;
#X connect 6 0 10 0;
#X connect 6 1 7 0;
#X connect 7 0 4 0;
#X connect 10 0 8 0;
#X coords 0 0 1 1 250 175 0 0 0;
