#N canvas 641 115 433 432 12;
#X obj 12 12 cnv 15 275 45 empty empty empty 0 -7 0 10 #cccccc #000000;
#X text 24 24 append;
#N canvas 752 524 384 146 \$0-template 0;
#X obj 36 96 struct \$0-template float x float y symbol z;
#X obj 36 24 draw circle -fill -- 15;
#X obj 36 60 draw text -x -3 -y -6 -color 888 -- z;
#X coords 0 0 1 1 250 175 0 0 0;
#X restore 300 384 pd \$0-template;
#N canvas 175 185 311 319 \$0-data 1;
#X coords 0 0 1 1 250 175 0 0 0;
#X restore 300 360 pd \$0-data;
#X obj 36 348 append \$0-template x y;
#X obj 204 312 pointer;
#X msg 204 288 traverse \$0-data \, bang;
#X obj 36 228 t 2 b;
#X f 5;
#X text 12 72 Add a scalar to a patch.;
#X obj 36 288 random 300;
#X msg 132 180 \; pd-\$0-data clear;
#X obj 36 108 bng 15 250 50 0 empty empty empty 17 7 0 10 #ffffff #000000 #000000;
#N canvas 821 260 301 291 alphabet 0;
#X obj 36 60 t b p;
#X obj 36 204 list tosymbol;
#X obj 36 240 set -symbol \$0-template z;
#X obj 36 24 inlet;
#X obj 36 132 random 26;
#X obj 36 168 + 65;
#X connect 0 0 4 0;
#X connect 0 1 2 1;
#X connect 1 0 2 0;
#X connect 3 0 0 0;
#X connect 4 0 5 0;
#X connect 5 0 1 0;
#X coords 0 0 1 1 250 175 0 0 0;
#X restore 36 384 pd alphabet;
#X obj 36 144 t b b;
#X f 5;
#X obj 36 180 uzi 10;
#X connect 4 0 12 0;
#X connect 5 0 4 2;
#X connect 6 0 5 0;
#X connect 7 0 9 0;
#X connect 7 1 6 0;
#X connect 9 0 4 0;
#X connect 11 0 13 0;
#X connect 13 0 14 0;
#X connect 13 1 10 0;
#X connect 14 0 7 0;
#X coords 0 0 1 1 250 175 0 0 0;
