#N canvas 814 156 450 381 12;
#X obj 36 228 pointer;
#X obj 12 12 cnv 15 275 45 empty empty empty 0 -7 0 10 #cccccc #000000;
#X text 24 24 array;
#N canvas 313 346 463 166 \$0-data 1;
#X coords 0 0 1 1 250 175 0 0 0;
#X restore 300 288 pd \$0-data;
#N canvas 738 510 483 260 \$0-template 0;
#X obj 36 96 struct \$0-template float x float y array a \$0-element;
#X f 54;
#X obj 36 24 tgl 15 1 empty empty empty 17 7 0 10 #ffffff #000000 #000000 1 1;
#X obj 36 60 draw plot -color 777 -x 10 -y 15 -increment 25 -- a;
#X obj 36 132 constructor x 40;
#X obj 36 168 constructor y 70;
#X obj 36 204 constructor a 16;
#X connect 1 0 2 0;
#X coords 0 0 1 1 250 175 0 0 0;
#X restore 300 336 pd \$0-template;
#N canvas 776 373 358 188 \$0-element 0;
#X obj 36 96 struct \$0-element float y;
#X obj 36 24 tgl 15 1 empty empty empty 17 7 0 10 #ffffff #000000 #000000 1 1;
#X obj 36 60 draw polygon -fill -- -5 0 0 5 5 0 0 -5;
#X obj 36 132 constructor y floor((rand()*100)-50);
#X connect 1 0 2 0;
#X coords 0 0 1 1 250 175 0 0 0;
#X restore 300 312 pd \$0-element;
#N canvas 760 247 357 247 init 0;
#X obj 180 156 pointer;
#X obj 96 24 loadbang;
#X obj 36 84 t b b;
#X obj 36 24 inlet;
#X obj 36 192 append \$0-template;
#X msg 180 132 clear \$0-data \, bang;
#X connect 0 0 4 1;
#X connect 1 0 2 0;
#X connect 2 0 4 0;
#X connect 2 1 5 0;
#X connect 3 0 2 0;
#X connect 5 0 0 0;
#X coords 0 0 1 1 250 175 0 0 0;
#X restore 300 264 pd init;
#X f 7;
#X obj 300 228 bng 15 250 50 0 empty empty empty 17 7 0 10 #ffffff #000000 #000000;
#X text 12 72 A scalar may contain an array of elements.;
#X obj 36 156 loadbang;
#X msg 36 192 traverse \$0-data \, next;
#N canvas 811 229 304 501 more 0;
#X obj 36 84 pointer;
#X msg 36 48 traverse \$0-data \, next;
#X obj 36 192 element \$0-template a;
#X floatatom 36 156 5 0 15 1 - - -;
#X f 5;
#X obj 36 312 get \$0-element y;
#X floatatom 36 348 5 0 0 1 - - -;
#X f 5;
#X text 12 12 You can fetch each element one by one.;
#X obj 36 456 set \$0-element y;
#X floatatom 36 420 5 0 0 1 - - -;
#X f 5;
#X obj 36 228 s \$0-element;
#X obj 36 276 r \$0-element;
#X obj 156 420 r \$0-element;
#X msg 36 384 set \$1;
#X connect 0 0 2 1;
#X connect 1 0 0 0;
#X connect 2 0 9 0;
#X connect 3 0 2 0;
#X connect 4 0 5 0;
#X connect 5 0 12 0;
#X connect 8 0 7 0;
#X connect 10 0 4 0;
#X connect 11 0 7 1;
#X connect 12 0 8 0;
#X coords 0 0 1 1 250 175 0 0 0;
#X restore 36 336 pd more;
#X obj 36 264 getsize \$0-template a;
#X floatatom 36 300 5 0 0 1 - - -;
#X f 5;
#X text 12 120 Nested arrays are prohibited.;
#X text 12 96 The type of those elements is also defined by a template.;
#X connect 0 0 12 0;
#X connect 7 0 6 0;
#X connect 9 0 10 0;
#X connect 10 0 0 0;
#X connect 12 0 13 0;
#X coords 0 0 1 1 250 175 0 0 0;
