#N canvas 729 172 301 280 12;
#X obj 12 12 cnv 15 275 45 empty empty empty 0 -7 0 10 #cccccc #000000;
#X text 24 24 selection;
#N canvas 684 228 501 463 \$0-template 0;
#X obj 36 24 tgl 15 1 empty empty empty 17 7 0 10 #ffffff #000000 #000000 1 1;
#X obj 36 96 tgl 15 1 empty empty empty 17 7 0 10 #ffffff #000000 #000000 1 1;
#X obj 36 372 struct \$0-template float x float y float w float h float q;
#X obj 36 408 outlet;
#X obj 36 60 draw text -y -15 -- q;
#X obj 36 132 draw polygon -fill -fillcolor q -- 0 0 w 0 w h 0 h;
#X obj 36 180 constructor x floor(rand()*300);
#X obj 36 216 constructor y floor(rand()*300);
#X obj 36 288 constructor h floor(max(rand()*75 \, 5));
#X obj 36 252 constructor w floor(max(rand()*75 \, 5));
#X obj 36 324 constructor q floor(rand()*888);
#X connect 0 0 4 0;
#X connect 1 0 5 0;
#X connect 2 0 3 0;
#X coords 0 0 1 1 250 175 0 0 0;
#X restore 36 192 pd \$0-template;
#N canvas 334 184 361 348 \$0-data 1;
#X coords 0 0 1 1 250 175 0 0 0;
#X restore 36 168 pd \$0-data;
#N canvas 825 255 355 223 init 0;
#X obj 180 144 pointer;
#X obj 108 24 loadbang;
#X obj 36 24 inlet;
#X obj 36 72 t b b;
#X obj 36 120 uzi 10;
#X msg 180 120 clear \$0-data \, bang;
#X obj 36 180 append \$0-template;
#X connect 0 0 6 1;
#X connect 1 0 3 0;
#X connect 2 0 3 0;
#X connect 3 0 4 0;
#X connect 3 1 5 0;
#X connect 4 0 6 0;
#X connect 5 0 0 0;
#X coords 0 0 1 1 250 175 0 0 0;
#X restore 36 144 pd init;
#X obj 36 108 bng 15 250 50 0 empty empty empty 17 7 0 10 #ffffff #000000 #000000;
#X obj 36 228 print;
#X text 12 72 A template is bound to its instances.;
#X connect 2 0 6 0;
#X connect 5 0 4 0;
#X coords 0 0 1 1 250 175 0 0 0;
