#N canvas 676 138 418 360 12;
#X obj 12 12 cnv 15 275 45 empty empty empty 0 -7 0 10 #cccccc #000000;
#X text 24 24 GOP;
#N canvas 262 401 439 252 \$0-template 0;
#X obj 36 60 struct \$0-template float x float y float z float q;
#X obj 36 24 draw text -color q -- z;
#X obj 36 96 constructor x rand()*200;
#X obj 36 132 constructor y rand()*200;
#X obj 36 204 constructor q rand()*888;
#X obj 36 168 constructor z floor(rand()*100);
#X coords 0 0 1 1 250 175 0 0 0;
#X restore 288 312 pd \$0-template;
#N canvas 141 383 311 319 \$0-data 0;
#X coords 0 0 1 1 225 225 1 0 0;
#X restore 36 108 pd \$0-data;
#X obj 288 252 bng 15 250 50 0 empty empty empty 17 7 0 10 #ffffff #000000 #000000;
#N canvas 788 256 352 236 init 0;
#X obj 180 156 pointer;
#X obj 36 84 t b b;
#X f 5;
#X obj 36 132 uzi 10;
#X obj 36 24 inlet;
#X obj 96 24 loadbang;
#X obj 36 192 append \$0-template;
#X msg 180 132 clear \$0-data \, bang;
#X connect 0 0 5 1;
#X connect 1 0 2 0;
#X connect 1 1 6 0;
#X connect 2 0 5 0;
#X connect 3 0 1 0;
#X connect 4 0 1 0;
#X connect 6 0 0 0;
#X coords 0 0 1 1 250 175 0 0 0;
#X restore 288 288 pd init;
#X text 12 72 Works with graphed on parent patches.;
#N canvas 786 556 349 131 more 0;
#N canvas 223 228 384 237 fun 0;
#X obj 216 156 pointer;
#X obj 36 60 t b b;
#X f 5;
#X obj 36 24 inlet;
#X obj 36 96 uzi 250;
#X msg 216 132 clear 08.gop \, bang;
#X obj 36 192 append \$0-template x y;
#X obj 36 156 random;
#X msg 36 132 2 500;
#X connect 0 0 5 2;
#X connect 1 0 3 0;
#X connect 1 1 4 0;
#X connect 2 0 1 0;
#X connect 3 0 7 0;
#X connect 4 0 0 0;
#X connect 6 0 5 0;
#X connect 7 0 6 0;
#X coords 0 0 1 1 250 175 0 0 0;
#X restore 36 84 pd fun;
#X obj 36 48 bng 15 250 50 0 empty empty empty 17 7 0 10 #ffffff #000000 #000000;
#X text 12 12 Remark that it works in the main patch also.;
#X connect 1 0 0 0;
#X coords 0 0 1 1 250 175 0 0 0;
#X restore 288 204 pd more;
#X connect 4 0 5 0;
#X coords 0 0 1 1 250 175 0 0 0;
