#N canvas 758 183 303 297 12;
#X obj 12 12 cnv 15 275 45 empty empty empty 0 -7 0 10 #cccccc #000000;
#N canvas 260 256 445 206 \$0-data 1;
#X coords 0 0 1 1 250 175 0 0 0;
#X restore 36 168 pd \$0-data;
#N canvas 730 403 469 152 \$0-template 0;
#X obj 36 96 struct \$0-template float x float y array a \$0-element;
#X f 54;
#X obj 36 24 tgl 15 1 empty empty empty 17 7 0 10 #ffffff #000000 #000000 1 1;
#X obj 36 60 draw plot -x 10 -y 25 -increment 50 -- a;
#X connect 1 0 2 0;
#X coords 0 0 1 1 250 175 0 0 0;
#X restore 36 192 pd \$0-template;
#N canvas 364 240 432 271 \$0-element 0;
#X obj 36 24 tgl 15 1 empty empty empty 17 7 0 10 #ffffff #000000 #000000 1 1;
#X obj 36 96 tgl 15 1 empty empty empty 17 7 0 10 #ffffff #000000 #000000 1 1;
#X obj 36 132 draw circle -color 777 -- g;
#X obj 36 60 draw polygon -- (-f) 0 0 f f 0 0 (-f) (-f) 0;
#X obj 36 180 struct \$0-element float y float f float g float i;
#X obj 36 228 outlet;
#X connect 0 0 3 0;
#X connect 1 0 2 0;
#X connect 4 0 5 0;
#X coords 0 0 1 1 250 175 0 0 0;
#X restore 36 216 pd \$0-element;
#N canvas 825 161 409 352 init 0;
#X obj 216 240 pointer;
#X msg 216 216 traverse \$0-data \, bang;
#X obj 96 24 loadbang;
#X msg 96 120 \; pd-\$0-data clear;
#X obj 36 84 t b b;
#X obj 36 24 inlet;
#N canvas 593 308 334 169 a 0;
#N canvas 679 383 470 248 points 0;
#X obj 36 24 inlet;
#X obj 396 24 inlet;
#X obj 216 132 element \$0-template a;
#X obj 36 60 uzi;
#X f 5;
#X obj 36 132 expr rand()*100-50;
#X obj 36 168 int;
#X obj 36 96 t b 10 25 f f;
#X f 18;
#X obj 36 204 set \$0-element y f g i;
#X f 23;
#X connect 0 0 3 0;
#X connect 1 0 2 1;
#X connect 2 0 7 4;
#X connect 3 2 6 0;
#X connect 4 0 5 0;
#X connect 5 0 7 0;
#X connect 6 0 4 0;
#X connect 6 1 7 1;
#X connect 6 2 7 2;
#X connect 6 3 7 3;
#X connect 6 4 2 0;
#X coords 0 0 1 1 250 175 0 0 0;
#X restore 36 120 pd points;
#X obj 144 120 setsize \$0-template a;
#X obj 36 24 inlet;
#X obj 36 72 t 8 p 8 p;
#X f 23;
#X connect 2 0 3 0;
#X connect 3 0 0 0;
#X connect 3 1 0 1;
#X connect 3 2 1 0;
#X connect 3 3 1 1;
#X coords 0 0 1 1 250 175 0 0 0;
#X restore 36 312 pd a;
#X obj 36 276 append \$0-template x y;
#X obj 36 180 t 40 70 b;
#X f 22;
#X connect 0 0 7 2;
#X connect 1 0 0 0;
#X connect 2 0 4 0;
#X connect 4 0 8 0;
#X connect 4 1 3 0;
#X connect 5 0 4 0;
#X connect 7 0 6 0;
#X connect 8 0 7 0;
#X connect 8 1 7 1;
#X connect 8 2 1 0;
#X coords 0 0 1 1 250 175 0 0 0;
#X restore 36 144 pd init;
#X f 7;
#X obj 36 108 bng 15 250 50 0 empty empty empty 17 7 0 10 #ffffff #000000 #000000;
#X text 24 24 array (more);
#N canvas 306 235 300 214 get 0;
#X obj 36 24 inlet;
#X obj 36 96 get - i f g;
#X obj 36 60 route change;
#X obj 36 132 pack f f f;
#X f 11;
#X obj 36 168 print;
#X connect 0 0 2 0;
#X connect 1 0 3 0;
#X connect 1 1 3 1;
#X connect 1 2 3 2;
#X connect 2 0 1 0;
#X connect 3 0 4 0;
#X coords 0 0 1 1 250 175 0 0 0;
#X restore 36 252 pd get;
#X text 12 72 Interact with elements of an array.;
#X connect 3 0 7 0;
#X connect 5 0 4 0;
#X coords 0 0 1 1 250 175 0 0 0;
