#N canvas 955 243 300 241 12;
#X obj 12 12 cnv 15 275 45 empty empty empty 0 -7 0 10 #cccccc #000000;
#N canvas 301 231 525 432 \$0-data 1;
#X coords 0 0 1 1 250 175 0 0 0;
#X restore 36 168 pd \$0-data;
#N canvas 625 334 309 275 init 0;
#X obj 108 192 pointer;
#X msg 108 168 traverse \$0-data \, bang;
#X msg 108 108 \; pd-\$0-data clear;
#X obj 36 24 inlet;
#X obj 36 72 t b b b;
#X f 7;
#N canvas 790 201 391 322 shapes 0;
#X obj 36 24 inlet;
#X obj 312 24 inlet;
#X obj 36 60 uzi 4;
#X obj 36 132 random 400;
#X obj 36 156 expr floor((rand()*50)+30);
#X obj 36 180 expr floor((rand()*20)+10);
#X obj 36 276 append \$0-bubble x y r f q i;
#X obj 36 96 t 2 b b b;
#X f 9;
#X obj 36 204 random 888;
#X connect 0 0 2 0;
#X connect 1 0 6 6;
#X connect 2 0 7 0;
#X connect 2 2 6 5;
#X connect 3 0 6 0;
#X connect 4 0 6 2;
#X connect 5 0 6 3;
#X connect 7 0 3 0;
#X connect 7 1 4 0;
#X connect 7 2 5 0;
#X connect 7 3 8 0;
#X connect 8 0 6 4;
#X coords 0 0 1 1 250 175 0 0 0;
#X restore 36 228 pd shapes;
#X obj 96 24 loadbang;
#X connect 0 0 5 1;
#X connect 1 0 0 0;
#X connect 3 0 4 0;
#X connect 4 0 5 0;
#X connect 4 1 1 0;
#X connect 4 2 2 0;
#X connect 6 0 4 0;
#X coords 0 0 1 1 250 175 0 0 0;
#X restore 36 144 pd init;
#X obj 36 108 bng 15 250 50 0 empty empty empty 17 7 0 10 #ffffff #000000 #000000;
#N canvas 608 233 545 286 \$0-bubble 0;
#N canvas 825 293 301 258 clip 0;
#X obj 36 216 set - r;
#X obj 144 144 max 10;
#X obj 36 24 inlet;
#X obj 144 108 get - r f;
#X obj 108 216 set - f;
#X obj 36 60 t p p p;
#X obj 216 144 max 10;
#X connect 1 0 0 0;
#X connect 2 0 5 0;
#X connect 3 0 1 0;
#X connect 3 1 6 0;
#X connect 5 0 3 0;
#X connect 5 1 0 1;
#X connect 5 2 4 1;
#X connect 6 0 4 0;
#X coords 0 0 1 1 250 175 0 0 0;
#X restore 36 240 pd clip;
#X obj 36 204 route change;
#X obj 36 168 struct \$0-bubble float x float y float r float f float q float i;
#X f 64;
#X obj 36 24 draw text -color q -x (r+10) -y -14 -- x;
#X obj 36 60 draw text -color q -x (r+10) -- y;
#X obj 36 132 draw circle -color q -width 4 -- r;
#X obj 36 96 draw polygon -color q -y (-r) -- (-f) 0 0 (f) (f) 0 0 (-f) (-f) 0;
#X f 65;
#X connect 1 0 0 0;
#X connect 2 0 1 0;
#X coords 0 0 1 1 250 175 0 0 0;
#X restore 36 192 pd \$0-bubble;
#X text 24 24 bubbles;
#X text 12 72 Example of a custom UI.;
#X connect 3 0 2 0;
#X coords 0 0 1 1 250 175 0 0 0;
