#N canvas 882 270 300 241 12;
#X obj 12 12 cnv 15 275 45 empty empty empty 0 -7 0 10 #cccccc #000000;
#N canvas 289 281 515 418 \$0-data 1;
#X coords 0 0 1 1 250 175 0 0 0;
#X restore 36 168 pd \$0-data;
#N canvas 623 293 344 216 init 0;
#X obj 168 132 pointer;
#X obj 36 24 inlet;
#X obj 96 24 loadbang;
#X obj 36 72 t b b;
#X f 7;
#X msg 168 108 clear \$0-data \, bang;
#X obj 36 168 append \$0-bubble;
#X obj 36 108 uzi 4;
#X connect 0 0 5 1;
#X connect 1 0 3 0;
#X connect 2 0 3 0;
#X connect 3 0 6 0;
#X connect 3 1 4 0;
#X connect 4 0 0 0;
#X connect 6 0 5 0;
#X coords 0 0 1 1 250 175 0 0 0;
#X restore 36 144 pd init;
#X obj 36 108 bng 15 250 50 0 empty empty empty 17 7 0 10 #ffffff #000000 #000000;
#N canvas 538 135 545 468 \$0-bubble 0;
#N canvas 608 291 303 261 clip 0;
#X obj 36 216 set - r;
#X obj 144 144 max 10;
#X obj 36 24 inlet;
#X obj 144 108 get - r f;
#X obj 108 216 set - f;
#X obj 36 60 t p p p;
#X obj 216 144 max 10;
#X connect 1 0 0 0;
#X connect 2 0 5 0;
#X connect 3 0 1 0;
#X connect 3 1 6 0;
#X connect 5 0 3 0;
#X connect 5 1 0 1;
#X connect 5 2 4 1;
#X connect 6 0 4 0;
#X coords 0 0 1 1 250 175 0 0 0;
#X restore 36 420 pd clip;
#X obj 36 384 route change;
#X obj 36 24 draw text -color q -x (r+10) -y -14 -- x;
#X obj 36 60 draw text -color q -x (r+10) -- y;
#X obj 36 132 draw circle -color q -width 4 -- r;
#X obj 36 96 draw polygon -color q -y (-r) -- (-f) 0 0 (f) (f) 0 0 (-f) (-f) 0;
#X f 65;
#X obj 36 348 struct \$0-bubble float x float y float r float f float q;
#X f 56;
#X obj 36 168 constructor x floor(rand()*400);
#X obj 36 204 constructor y floor(rand()*400);
#X obj 36 240 constructor r floor((rand()*50)+30);
#X obj 36 276 constructor f floor((rand()*20)+10);
#X obj 36 312 constructor q floor(floor((rand()*88))*10);
#X connect 1 0 0 0;
#X connect 6 0 1 0;
#X coords 0 0 1 1 250 175 0 0 0;
#X restore 36 192 pd \$0-bubble;
#X text 24 24 bubbles;
#X text 12 72 Example of a custom UI.;
#X connect 3 0 2 0;
#X coords 0 0 1 1 250 175 0 0 0;
